<?xml version="1.0" encoding="UTF-8"?>
<svg viewBox="0 0 700 600" xmlns="http://www.w3.org/2000/svg" style="max-width:700px; width:100%;">
  <text x="350" y="28" text-anchor="middle" font-family="sans-serif" font-size="16" font-weight="bold" fill="#2c3e50">Complete Frame -- 3/4 View</text>
  <text x="350" y="46" text-anchor="middle" font-family="sans-serif" font-size="11" fill="#888" font-style="italic">All posts, rails, mid-rails, cross-bracing, and centre divider</text>

  <!-- === BACK FRAME === -->
  <line x1="265" y1="402" x2="265" y2="72" stroke="#b8944a" stroke-width="3.5"/>
  <line x1="478" y1="402" x2="478" y2="72" stroke="#b8944a" stroke-width="3.5"/>
  <line x1="615" y1="402" x2="615" y2="72" stroke="#b8944a" stroke-width="3.5"/>
  <line x1="265" y1="72" x2="615" y2="72" stroke="#b8944a" stroke-width="3"/>
  <line x1="265" y1="402" x2="615" y2="402" stroke="#b8944a" stroke-width="3"/>
  <line x1="265" y1="201" x2="615" y2="201" stroke="#e07020" stroke-width="3"/>
  <line x1="267" y1="74" x2="476" y2="199" stroke="#c9975e" stroke-width="2"/>
  <line x1="476" y1="74" x2="267" y2="199" stroke="#c9975e" stroke-width="2"/>

  <!-- === DEPTH RAILS === -->
  <line x1="100" y1="85" x2="265" y2="72" stroke="#e07020" stroke-width="2.5"/>
  <line x1="450" y1="85" x2="615" y2="72" stroke="#e07020" stroke-width="2.5"/>
  <line x1="312" y1="85" x2="478" y2="72" stroke="#e07020" stroke-width="2.5"/>
  <line x1="100" y1="500" x2="265" y2="402" stroke="#d4a574" stroke-width="2.5"/>
  <line x1="450" y1="500" x2="615" y2="402" stroke="#d4a574" stroke-width="2.5"/>
  <line x1="100" y1="299" x2="265" y2="201" stroke="#e07020" stroke-width="3"/>
  <line x1="312" y1="299" x2="478" y2="201" stroke="#e07020" stroke-width="3"/>

  <!-- Left side X-braces -->
  <line x1="102" y1="87" x2="263" y2="199" stroke="#c9975e" stroke-width="2"/>
  <line x1="263" y1="74" x2="102" y2="297" stroke="#c9975e" stroke-width="2"/>

  <!-- === FRONT FRAME === -->
  <line x1="100" y1="500" x2="100" y2="85" stroke="#d4a574" stroke-width="5"/>
  <line x1="450" y1="500" x2="450" y2="85" stroke="#d4a574" stroke-width="5"/>
  <line x1="312" y1="488" x2="312" y2="97" stroke="#d4a574" stroke-width="4"/>
  <line x1="100" y1="85" x2="450" y2="85" stroke="#d4a574" stroke-width="4"/>
  <line x1="312" y1="488" x2="450" y2="488" stroke="#d4a574" stroke-width="3"/>

  <!-- === DIMENSIONS === -->
  <text x="55" y="298" text-anchor="middle" font-family="sans-serif" font-size="12" font-weight="bold" fill="#c0392b" transform="rotate(-90,55,298)">1597 mm</text>
  <line x1="72" y1="85" x2="72" y2="500" stroke="#c0392b" stroke-width="1"/>
  <line x1="64" y1="85" x2="80" y2="85" stroke="#c0392b" stroke-width="1"/>
  <line x1="64" y1="500" x2="80" y2="500" stroke="#c0392b" stroke-width="1"/>

  <text x="650" y="242" text-anchor="middle" font-family="sans-serif" font-size="12" font-weight="bold" fill="#c0392b" transform="rotate(-90,650,242)">1647 mm</text>
  <line x1="632" y1="72" x2="632" y2="402" stroke="#c0392b" stroke-width="1"/>
  <line x1="624" y1="72" x2="640" y2="72" stroke="#c0392b" stroke-width="1"/>
  <line x1="624" y1="402" x2="640" y2="402" stroke="#c0392b" stroke-width="1"/>

  <line x1="100" y1="525" x2="450" y2="525" stroke="#c0392b" stroke-width="1"/>
  <text x="275" y="540" text-anchor="middle" font-family="sans-serif" font-size="12" font-weight="bold" fill="#c0392b">1300 mm</text>

  <!-- === LABELS === -->
  <text x="200" y="400" text-anchor="middle" font-family="sans-serif" font-size="12" font-weight="bold" fill="#27ae60">DOOR</text>
  <text x="200" y="415" text-anchor="middle" font-family="sans-serif" font-size="11" fill="#27ae60">(~780 mm)</text>
  <text x="385" y="400" text-anchor="middle" font-family="sans-serif" font-size="12" font-weight="bold" fill="#8B6914">SHELVES</text>
  <text x="385" y="415" text-anchor="middle" font-family="sans-serif" font-size="11" fill="#8B6914">(~470 mm)</text>
  <text x="440" y="242" text-anchor="middle" font-family="sans-serif" font-size="9" fill="#e07020">Mid-rails at 775 mm</text>
  <text x="545" y="468" text-anchor="middle" font-family="sans-serif" font-size="11" font-weight="bold" fill="#c0392b" transform="rotate(-30,545,468)">844 mm depth</text>

  <!-- Component key -->
  <rect x="20" y="560" width="16" height="8" fill="#d4a574" rx="2"/>
  <text x="42" y="569" font-family="sans-serif" font-size="10" fill="#555">Posts and rails</text>
  <rect x="200" y="560" width="16" height="8" fill="#e07020" rx="2"/>
  <text x="222" y="569" font-family="sans-serif" font-size="10" fill="#555">Mid-height rails and depth rails</text>
  <rect x="450" y="560" width="16" height="8" fill="#c9975e" rx="2"/>
  <text x="472" y="569" font-family="sans-serif" font-size="10" fill="#555">X-braces</text>
</svg>
